<svg width="24" height="25" viewBox="0 0 24 25" fill="none" xmlns="http://www.w3.org/2000/svg"><path d="M12 0.483887C5.374 0.483887 0 5.93117 0 12.6498C0 18.0251 3.438 22.5853 8.207 24.1942C8.806 24.3067 9 23.9296 9 23.6092V21.3443C5.662 22.0804 4.967 19.9088 4.967 19.9088C4.421 18.5026 3.634 18.1285 3.634 18.1285C2.545 17.3732 3.717 17.3894 3.717 17.3894C4.922 17.4746 5.556 18.6435 5.556 18.6435C6.626 20.5029 8.363 19.9655 9.048 19.6543C9.155 18.8686 9.466 18.3313 9.81 18.0281C7.145 17.7189 4.343 16.6757 4.343 12.0151C4.343 10.686 4.812 9.60121 5.579 8.7496C5.455 8.44241 5.044 7.20453 5.696 5.52969C5.696 5.52969 6.704 5.20324 8.997 6.77669C9.954 6.50702 10.98 6.37218 12 6.36711C13.02 6.37218 14.047 6.50702 15.006 6.77669C17.297 5.20324 18.303 5.52969 18.303 5.52969C18.956 7.20554 18.545 8.44342 18.421 8.7496C19.191 9.60121 19.656 10.687 19.656 12.0151C19.656 16.6878 16.849 17.7169 14.177 18.018C14.607 18.3951 15 19.1352 15 20.2707V23.6092C15 23.9326 15.192 24.3128 15.801 24.1932C20.566 22.5822 24 18.0231 24 12.6498C24 5.93117 18.627 0.483887 12 0.483887Z" fill="currentColor"></path></svg>